<svg width="500" height="800" viewBox="0 0 500 800" fill="none" xmlns="http://www.w3.org/2000/svg">
<g clip-path="url(#clip0_2946_711)">
<path d="M421.273 944.53C415.281 955.728 392.532 968.178 366.952 980.722L343.774 991.707L345.35 956.262L368.389 945.123C382.453 938.075 388.74 932.936 394.707 921.03C397.031 914.39 398.208 907.401 398.186 900.362L408.351 668.389C361.545 627.235 300.95 605.305 238.726 607.001L177.463 633.943L207.37 701.949L259.305 679.11L271.024 705.758L219.089 728.597L248.466 795.397L327.059 760.834L338.646 787.181L235.319 832.621L145.492 628.361C127.894 636.23 111.282 646.143 95.9997 657.896V657.896C106.322 661.503 115.621 667.56 123.099 675.549C130.578 683.538 136.013 693.221 138.938 703.767C141.544 711.278 142.535 719.253 141.846 727.17C141.156 735.087 138.802 742.766 134.937 749.703C144.217 751.981 152.824 756.441 160.042 762.715C167.26 768.988 172.881 776.893 176.438 785.774C182.147 798.316 183.911 812.296 181.497 825.855C177.347 848.209 163.457 864.583 139.827 874.974L114.612 886.063L104.192 862.369L120.26 855.303C130.548 851.178 139.528 844.345 146.251 835.527C150.362 829.82 152.847 823.1 153.443 816.085C154.038 809.07 152.721 802.022 149.632 795.692C148.215 792.407 146.375 789.322 144.159 786.515C133.572 773.327 118.871 770.871 100.055 779.145L72.8538 791.107L62.4341 767.414L89.3942 755.558C92.6541 754.147 95.7662 752.417 98.6853 750.392C114.129 740.003 117.981 726.006 110.239 708.402C107.546 702.284 103.45 696.887 98.2844 692.65C94.1505 688.974 89.2681 686.241 83.9763 684.642C78.6845 683.043 73.1101 682.616 67.64 683.39C52.9531 698.882 40.3497 716.227 30.1486 734.989L99.3482 892.344L73.2305 903.83L14.5568 770.409C-6.46569 829.526 -4.09384 894.486 21.186 951.971C46.4659 1009.46 92.7384 1055.11 150.517 1079.57L86.3281 933.612L112.686 922.021L187.374 1091.86C197.796 1094.45 208.376 1096.36 219.045 1097.57C234.2 1089.9 243.593 1082.03 247.138 1073.92C248.898 1069.4 249.673 1064.55 249.411 1059.7C249.149 1054.86 247.856 1050.12 245.62 1045.81L204.789 952.962C196.959 935.157 182.03 928.916 160 934.238C152.9 936.065 145.973 938.51 139.298 941.544L127.791 915.378C163.899 899.5 192.08 899.674 212.334 915.9C220.758 922.578 227.338 931.301 231.449 941.238L272.332 1034.2C283.22 1058.96 280.923 1080.36 265.441 1098.39C309.733 1094.91 352.24 1079.48 388.442 1053.74C424.644 1027.99 453.189 992.895 471.041 952.18C488.894 911.466 495.387 866.653 489.831 822.507C484.275 778.36 466.876 736.531 439.486 701.464L431.884 896.479C431.338 912.548 432.909 928.693 421.273 944.53Z" stroke="#F3C915" stroke-width="3"/>
<path d="M410.968 612.773L408.558 668.37C419.947 678.374 430.382 689.418 439.727 701.358L443.253 612.533L410.968 612.773Z" stroke="#F3C915" stroke-width="3"/>
<path d="M448.031 580.074C447.785 568.876 439.08 559.974 428.586 560.191C418.093 560.407 409.785 569.66 410.03 580.857C410.276 592.055 418.981 600.957 429.475 600.741C439.968 600.524 448.276 591.271 448.031 580.074Z" stroke="#F3C915" stroke-width="3"/>
</g>
<defs>
<clipPath id="clip0_2946_711">
<rect width="500" height="800" fill="white"/>
</clipPath>
</defs>
</svg>
