<svg width="136" height="137" viewBox="0 0 136 137" fill="none" xmlns="http://www.w3.org/2000/svg">
<path d="M85.3976 78.3862L85.3976 76.8862L83.8976 76.8862L56.9803 76.8862L97.183 10.0936L97.183 48.9088L97.183 50.4088L98.683 50.4088L125.6 50.4088L85.3976 117.201L85.3976 78.3862Z" stroke="#F3C915" stroke-width="3"/>
<path d="M43.8061 40.1494L43.8061 38.6494L42.3061 38.6494L28.994 38.6494L48.801 6.30681L48.801 24.4838L48.801 25.9838L50.301 25.9838L63.6131 25.9838L43.8061 58.3263L43.8061 40.1494Z" stroke="#F3C915" stroke-width="3"/>
<rect x="32.5" y="88.5" width="39" height="47" rx="2.5" stroke="#F3C915" stroke-width="3"/>
<line x1="44.5" y1="117" x2="44.5" y2="130" stroke="#F3C915" stroke-width="3"/>
<line x1="60.5" y1="117" x2="60.5" y2="130" stroke="#F3C915" stroke-width="3"/>
<line x1="46.5" y1="118.5" x2="42.5" y2="118.5" stroke="#F3C915" stroke-width="3" stroke-linecap="round"/>
<line x1="62.5" y1="123.5" x2="58.5" y2="123.5" stroke="#F3C915" stroke-width="3" stroke-linecap="round"/>
<circle cx="44.5" cy="111.5" r="2.5" fill="#F3C915"/>
<circle cx="60.5" cy="111.5" r="2.5" fill="#F3C915"/>
<circle cx="44.5" cy="103.5" r="2.5" fill="#F3C915"/>
<circle cx="60.5" cy="103.5" r="2.5" fill="#F3C915"/>
<circle cx="44.5" cy="95.5" r="2.5" fill="#F3C915"/>
<circle cx="60.5" cy="95.5" r="2.5" fill="#F3C915"/>
</svg>
