<svg width="136" height="136" viewBox="0 0 136 136" fill="none" xmlns="http://www.w3.org/2000/svg">
<path d="M87.0709 86.6933L87.0709 85.1933L85.5709 85.1933L58.6536 85.1933L98.8563 18.4008L98.8564 57.216L98.8564 58.716L100.356 58.716L127.274 58.716L87.0709 125.508L87.0709 86.6933Z" stroke="#F3C915" stroke-width="3"/>
<path d="M57.4897 39.164L57.4897 37.664L55.9897 37.664L42.6776 37.664L62.4846 5.32146L62.4846 23.4984L62.4846 24.9984L63.9846 24.9984L77.2967 24.9984L57.4897 57.3409L57.4897 39.164Z" stroke="#F3C915" stroke-width="3"/>
<mask id="path-3-outside-1_2946_817" maskUnits="userSpaceOnUse" x="6" y="72" width="60" height="60" fill="black">
<rect fill="white" x="6" y="72" width="60" height="60"/>
<path fill-rule="evenodd" clip-rule="evenodd" d="M30.9375 76.4408C27.6847 78.2631 25.2 82.7266 25.2 86.7465C25.2 90.0084 26.1126 91.1336 28.7579 91.1336C29.8244 91.1336 31.1515 91.5894 31.7077 92.1465C33.8184 94.261 38.1816 94.261 40.2923 92.1465C40.8485 91.5894 42.1756 91.1336 43.2421 91.1336C45.8874 91.1336 46.8 90.0084 46.8 86.7465C46.8 82.7266 44.3153 78.2631 41.0625 76.4408C37.6342 74.5197 34.3658 74.5197 30.9375 76.4408ZM41.6774 80.4059C43.9981 83.0072 43.1422 83.6509 39.9515 81.7022C38.7061 80.9421 36.9281 80.3194 36 80.3194C35.0719 80.3194 33.2939 80.9421 32.0486 81.7022C29.0529 83.5319 28.1207 83.1046 29.9696 80.7494C31.9095 78.2793 33.6949 77.5605 37.0125 77.9142C38.995 78.1258 40.235 78.7878 41.6774 80.4059ZM28.1538 97.2416C25.4585 98.0706 25.0637 98.5757 20.0525 107.611L15.8776 115.138L19.0197 115.564C21.0467 115.839 22.3542 115.719 22.7018 115.226C22.9988 114.806 23.9762 113.245 24.8747 111.757L26.5082 109.053L26.5291 114.158C26.5412 117.2 26.8774 119.591 27.36 120.074C28.4771 121.193 43.5229 121.193 44.64 120.074C45.124 119.59 45.4561 117.207 45.4649 114.158L45.4797 109.053L47.4973 112.519L49.5149 115.985L52.7137 115.641C54.4727 115.451 55.9598 115.261 56.0171 115.217C56.5126 114.843 47.1294 99.2749 45.7895 98.2498C44.3551 97.1517 42.8162 96.8846 37.1529 96.7527C33.3635 96.6648 29.3135 96.8846 28.1538 97.2416ZM9.81 118.992C9.3645 119.439 9 121.126 9 122.742C9 124.96 9.40635 126.088 10.6571 127.34L12.3136 129H36H59.6864L61.3429 127.34C62.5936 126.088 63 124.96 63 122.742C63 121.126 62.6355 119.439 62.19 118.992C61.7175 118.519 59.4515 118.181 56.7529 118.181C52.4673 118.181 51.8328 118.381 48.15 120.886L44.1743 123.591H36H27.8257L23.85 120.886C20.1672 118.381 19.5327 118.181 15.2471 118.181C12.5485 118.181 10.2825 118.519 9.81 118.992Z"/>
</mask>
<path d="M30.9375 76.4408L32.4038 79.058L32.404 79.0579L30.9375 76.4408ZM41.0625 76.4408L39.596 79.0579L39.5962 79.058L41.0625 76.4408ZM41.6774 80.4059L39.4381 82.4022L39.4388 82.4031L41.6774 80.4059ZM39.9515 81.7022L41.5151 79.1419L41.5143 79.1414L39.9515 81.7022ZM32.0486 81.7022L30.4857 79.1414L30.4848 79.142L32.0486 81.7022ZM29.9696 80.7494L27.6102 78.8965L27.6098 78.897L29.9696 80.7494ZM37.0125 77.9142L37.331 74.9311L37.3305 74.9311L37.0125 77.9142ZM28.1538 97.2416L29.0358 100.109L29.0365 100.109L28.1538 97.2416ZM20.0525 107.611L22.676 109.066L22.676 109.066L20.0525 107.611ZM15.8776 115.138L13.2541 113.683L11.1253 117.521L15.4745 118.111L15.8776 115.138ZM19.0197 115.564L19.4233 112.591L19.4227 112.591L19.0197 115.564ZM22.7018 115.226L20.2525 113.494L20.2501 113.497L22.7018 115.226ZM24.8747 111.757L22.3066 110.206L22.3066 110.206L24.8747 111.757ZM26.5082 109.053L29.5081 109.04L29.4643 98.3547L23.9401 107.502L26.5082 109.053ZM26.5291 114.158L29.5291 114.146L29.5291 114.145L26.5291 114.158ZM27.36 120.074L29.4832 117.955L27.36 120.074ZM45.4649 114.158L42.4649 114.149L42.4649 114.149L45.4649 114.158ZM45.4797 109.053L48.0724 107.543L42.5119 97.9904L42.4797 109.044L45.4797 109.053ZM47.4973 112.519L44.9045 114.028L44.9045 114.028L47.4973 112.519ZM49.5149 115.985L46.9221 117.494L47.901 119.176L49.8358 118.968L49.5149 115.985ZM52.7137 115.641L53.0346 118.623L53.0347 118.623L52.7137 115.641ZM56.0171 115.217L57.8237 117.612L57.8264 117.61L56.0171 115.217ZM45.7895 98.2498L43.9659 100.632L43.9666 100.632L45.7895 98.2498ZM37.1529 96.7527L37.2227 93.7535L37.2225 93.7535L37.1529 96.7527ZM10.6571 127.34L12.7807 125.221L12.7797 125.22L10.6571 127.34ZM12.3136 129L10.19 131.119L11.069 132H12.3136V129ZM59.6864 129V132H60.931L61.81 131.119L59.6864 129ZM61.3429 127.34L59.2203 125.22L59.2193 125.221L61.3429 127.34ZM48.15 120.886L46.4626 118.405L46.4625 118.405L48.15 120.886ZM44.1743 123.591V126.591H45.098L45.8617 126.071L44.1743 123.591ZM27.8257 123.591L26.1383 126.071L26.902 126.591H27.8257V123.591ZM23.85 120.886L25.5375 118.405L25.5374 118.405L23.85 120.886ZM29.4712 73.8235C27.2516 75.067 25.4582 77.1001 24.2278 79.3103C22.9919 81.5303 22.2 84.1489 22.2 86.7465H28.2C28.2 85.3242 28.6505 83.7011 29.4701 82.2288C30.2952 80.7467 31.3706 79.6369 32.4038 79.058L29.4712 73.8235ZM22.2 86.7465C22.2 88.4743 22.3998 90.5029 23.6569 92.053C25.0674 93.7921 27.102 94.1336 28.7579 94.1336V88.1336C28.2846 88.1336 28.0908 88.0799 28.0566 88.0682C28.0494 88.0657 28.0874 88.0781 28.148 88.1189C28.211 88.1615 28.2703 88.216 28.317 88.2736C28.4093 88.3874 28.3687 88.4071 28.3108 88.1499C28.2507 87.8827 28.2 87.4427 28.2 86.7465H22.2ZM28.7579 94.1336C28.8177 94.1336 28.9194 94.1407 29.0542 94.1652C29.1869 94.1893 29.3237 94.2252 29.4498 94.2685C29.5784 94.3127 29.667 94.3546 29.712 94.3795C29.7703 94.4117 29.7041 94.3858 29.5845 94.266L33.8309 90.0271C33.0911 89.2861 32.1315 88.8455 31.3985 88.5938C30.6077 88.3222 29.6784 88.1336 28.7579 88.1336V94.1336ZM29.5845 94.266C31.3452 96.0298 33.8125 96.7324 36 96.7324C38.1875 96.7324 40.6548 96.0298 42.4155 94.266L38.1691 90.0271C37.8191 90.3777 37.0495 90.7324 36 90.7324C34.9505 90.7324 34.1809 90.3777 33.8309 90.0271L29.5845 94.266ZM42.4155 94.266C42.2959 94.3858 42.2297 94.4117 42.288 94.3795C42.333 94.3546 42.4216 94.3127 42.5502 94.2685C42.6763 94.2252 42.8131 94.1893 42.9458 94.1652C43.0806 94.1407 43.1823 94.1336 43.2421 94.1336V88.1336C42.3216 88.1336 41.3923 88.3222 40.6015 88.5938C39.8685 88.8455 38.9089 89.2861 38.1691 90.0271L42.4155 94.266ZM43.2421 94.1336C44.898 94.1336 46.9326 93.7921 48.3431 92.053C49.6002 90.5029 49.8 88.4743 49.8 86.7465H43.8C43.8 87.4427 43.7493 87.8827 43.6892 88.1499C43.6313 88.4071 43.5907 88.3874 43.683 88.2736C43.7297 88.216 43.789 88.1615 43.852 88.1189C43.9126 88.0781 43.9506 88.0657 43.9434 88.0682C43.9092 88.0799 43.7154 88.1336 43.2421 88.1336V94.1336ZM49.8 86.7465C49.8 84.1489 49.0081 81.5303 47.7722 79.3103C46.5418 77.1001 44.7484 75.067 42.5288 73.8235L39.5962 79.058C40.6294 79.6369 41.7048 80.7467 42.5299 82.2288C43.3495 83.7011 43.8 85.3242 43.8 86.7465H49.8ZM42.529 73.8236C40.4511 72.6593 38.2764 72 36 72C33.7236 72 31.5489 72.6593 29.471 73.8236L32.404 79.0579C33.7545 78.3012 34.9281 78 36 78C37.0719 78 38.2455 78.3012 39.596 79.0579L42.529 73.8236ZM39.4388 82.4031C39.6806 82.6741 39.8571 82.8931 39.9802 83.0612C40.1088 83.2367 40.15 83.3172 40.1478 83.3128C40.1454 83.3079 40.1189 83.2545 40.0886 83.1591C40.0599 83.0686 40.0104 82.8865 39.9968 82.6355C39.9669 82.0828 40.136 81.0705 41.0791 80.3619C41.8426 79.7882 42.5896 79.8323 42.7238 79.8418C42.9269 79.8562 43.0004 79.8967 42.8878 79.8571C42.6769 79.7831 42.2281 79.5774 41.5151 79.1419L38.3878 84.2624C39.2701 84.8013 40.1248 85.246 40.8994 85.5181C41.2794 85.6516 41.766 85.789 42.2994 85.8268C42.764 85.8597 43.7584 85.8537 44.6833 85.1587C45.7877 84.3289 46.0322 83.1242 45.988 82.3106C45.9492 81.5941 45.7007 81.0051 45.5231 80.647C45.1493 79.8934 44.5592 79.1298 43.9161 78.4088L39.4388 82.4031ZM41.5143 79.1414C40.6845 78.635 39.7319 78.2037 38.8479 77.8942C38.0327 77.6089 36.9745 77.3194 36 77.3194V83.3194C35.9325 83.3194 35.9836 83.3129 36.184 83.3573C36.3645 83.3974 36.5974 83.4634 36.8656 83.5573C37.4139 83.7492 37.973 84.0093 38.3886 84.263L41.5143 79.1414ZM36 77.3194C35.0255 77.3194 33.9673 77.6089 33.1521 77.8942C32.2681 78.2037 31.3155 78.635 30.4857 79.1414L33.6114 84.263C34.027 84.0093 34.5861 83.7492 35.1344 83.5573C35.4026 83.4634 35.6355 83.3974 35.816 83.3573C36.0164 83.3129 36.0675 83.3194 36 83.3194V77.3194ZM30.4848 79.142C29.8156 79.5507 29.3758 79.7612 29.1438 79.8485C29.0249 79.8932 29.05 79.8712 29.1825 79.8532C29.2573 79.843 29.7883 79.7682 30.4423 80.0679C30.8082 80.2357 31.189 80.5123 31.4927 80.9233C31.7927 81.3294 31.9335 81.7527 31.9884 82.1012C32.0863 82.7225 31.9228 83.1464 31.9094 83.183C31.8692 83.2924 31.9202 83.123 32.3293 82.6019L27.6098 78.897C27.0945 79.5534 26.5687 80.3206 26.2769 81.1154C26.1377 81.4946 25.9297 82.1984 26.0616 83.0354C26.2263 84.08 26.8842 85.0373 27.9424 85.5224C28.7846 85.9084 29.5795 85.8544 29.9911 85.7984C30.4604 85.7346 30.8952 85.6001 31.256 85.4644C31.9836 85.1908 32.7837 84.7685 33.6123 84.2624L30.4848 79.142ZM32.3289 82.6024C33.1139 81.6029 33.6522 81.234 34.0947 81.0559C34.5591 80.8689 35.2802 80.7465 36.6945 80.8973L37.3305 74.9311C35.4272 74.7282 33.5968 74.7884 31.8541 75.49C30.0895 76.2003 28.7652 77.4259 27.6102 78.8965L32.3289 82.6024ZM36.694 80.8972C37.41 80.9737 37.8201 81.1112 38.1341 81.2789C38.4621 81.454 38.8635 81.7577 39.4381 82.4022L43.9168 78.4096C43.0489 77.436 42.1091 76.5997 40.9608 75.9864C39.7986 75.3657 38.5975 75.0664 37.331 74.9311L36.694 80.8972ZM27.2718 94.3742C26.5692 94.5903 25.723 94.8677 24.8799 95.3881C24.0009 95.9306 23.2889 96.63 22.6076 97.5019C21.3626 99.0954 19.8742 101.747 17.429 106.156L22.676 109.066C25.2419 104.44 26.4566 102.321 27.3356 101.196C27.7164 100.709 27.9216 100.562 28.0312 100.494C28.1769 100.404 28.3908 100.307 29.0358 100.109L27.2718 94.3742ZM17.429 106.156L13.2541 113.683L18.5011 116.593L22.676 109.066L17.429 106.156ZM15.4745 118.111L18.6167 118.537L19.4227 112.591L16.2806 112.165L15.4745 118.111ZM18.6161 118.537C19.7386 118.689 20.8231 118.757 21.765 118.671C22.235 118.627 22.7806 118.537 23.3198 118.334C23.838 118.139 24.5933 117.749 25.1535 116.955L20.2501 113.497C20.6365 112.949 21.098 112.759 21.21 112.717C21.3429 112.667 21.3698 112.682 21.216 112.696C20.9106 112.724 20.3278 112.714 19.4233 112.591L18.6161 118.537ZM25.1511 116.958C25.5232 116.432 26.5595 114.771 27.4427 113.308L22.3066 110.206C21.3929 111.719 20.4744 113.18 20.2525 113.494L25.1511 116.958ZM27.4427 113.308L29.0762 110.603L23.9401 107.502L22.3066 110.206L27.4427 113.308ZM23.5082 109.065L23.5291 114.17L29.5291 114.145L29.5081 109.04L23.5082 109.065ZM23.5291 114.17C23.5355 115.783 23.6273 117.283 23.7973 118.493C23.8814 119.092 23.9939 119.687 24.1494 120.218C24.2603 120.596 24.5373 121.493 25.2368 122.194L29.4832 117.955C29.7646 118.237 29.8822 118.49 29.9001 118.527C29.9309 118.593 29.9288 118.604 29.9071 118.53C29.8635 118.381 29.8007 118.098 29.7389 117.658C29.6171 116.791 29.5348 115.574 29.5291 114.146L23.5291 114.17ZM25.2368 122.194C25.7985 122.756 26.4539 123.003 26.7194 123.097C27.0776 123.225 27.4501 123.315 27.7846 123.382C28.4611 123.519 29.269 123.618 30.1105 123.692C31.8104 123.842 33.9239 123.914 36 123.914C38.0761 123.914 40.1896 123.842 41.8895 123.692C42.731 123.618 43.5389 123.519 44.2154 123.382C44.5499 123.315 44.9224 123.225 45.2806 123.097C45.5461 123.003 46.2015 122.756 46.7632 122.194L42.5168 117.955C42.7611 117.71 42.9862 117.581 43.0798 117.531C43.1867 117.474 43.2581 117.448 43.2676 117.445C43.2822 117.44 43.2158 117.463 43.0298 117.501C42.6653 117.574 42.1057 117.65 41.3621 117.715C39.8918 117.845 37.9646 117.914 36 117.914C34.0354 117.914 32.1082 117.845 30.6379 117.715C29.8943 117.65 29.3347 117.574 28.9702 117.501C28.7842 117.463 28.7178 117.44 28.7324 117.445C28.7419 117.448 28.8133 117.474 28.9202 117.531C29.0138 117.581 29.2389 117.71 29.4832 117.955L25.2368 122.194ZM46.7632 122.194C47.4623 121.493 47.7394 120.598 47.8509 120.217C48.0065 119.686 48.1184 119.091 48.2019 118.492C48.3705 117.283 48.4602 115.783 48.4648 114.166L42.4649 114.149C42.4607 115.582 42.38 116.798 42.2594 117.664C42.1982 118.102 42.1359 118.384 42.0928 118.531C42.0714 118.604 42.0696 118.592 42.1007 118.526C42.1192 118.487 42.2366 118.236 42.5168 117.955L46.7632 122.194ZM48.4648 114.166L48.4797 109.061L42.4797 109.044L42.4649 114.149L48.4648 114.166ZM42.887 110.562L44.9045 114.028L50.09 111.009L48.0724 107.543L42.887 110.562ZM44.9045 114.028L46.9221 117.494L52.1076 114.476L50.09 111.009L44.9045 114.028ZM49.8358 118.968L53.0346 118.623L52.3927 112.658L49.1939 113.002L49.8358 118.968ZM53.0347 118.623C53.9287 118.527 54.7611 118.43 55.3849 118.35C55.6937 118.31 55.9687 118.273 56.1804 118.24C56.2815 118.225 56.3985 118.206 56.5082 118.184C56.5581 118.174 56.6501 118.156 56.7555 118.128C56.8057 118.115 56.9039 118.088 57.0225 118.045C57.0575 118.032 57.4332 117.907 57.8237 117.612L54.2106 112.822C54.4409 112.649 54.6449 112.548 54.737 112.505C54.8461 112.453 54.9371 112.419 54.9927 112.399C55.1022 112.359 55.1886 112.336 55.2243 112.326C55.3008 112.306 55.3532 112.296 55.3535 112.296C55.364 112.294 55.3417 112.299 55.2679 112.31C55.1296 112.331 54.9121 112.361 54.6222 112.399C54.0484 112.472 53.2577 112.565 52.3926 112.658L53.0347 118.623ZM57.8264 117.61C58.5916 117.032 58.8628 116.276 58.9588 115.853C59.0547 115.43 59.0401 115.079 59.0255 114.897C58.9958 114.529 58.9075 114.228 58.8639 114.087C58.7642 113.766 58.624 113.44 58.5036 113.176C58.2478 112.616 57.877 111.901 57.4521 111.119C56.5921 109.538 55.3991 107.483 54.1609 105.429C52.9216 103.373 51.6165 101.283 50.5277 99.6303C49.9853 98.807 49.4804 98.0674 49.055 97.4862C48.8435 97.1972 48.6328 96.9213 48.4341 96.6831C48.2799 96.4984 47.983 96.1507 47.6124 95.8671L43.9666 100.632C43.7635 100.477 43.6969 100.371 43.8272 100.527C43.9129 100.63 44.0407 100.794 44.213 101.029C44.5553 101.497 44.9994 102.145 45.5173 102.931C46.5492 104.497 47.8102 106.515 49.0222 108.526C50.2354 110.539 51.3791 112.511 52.1809 113.985C52.5869 114.732 52.8784 115.302 53.0461 115.669C53.1375 115.869 53.1494 115.917 53.1334 115.865C53.1316 115.859 53.0681 115.667 53.0449 115.38C53.0335 115.239 53.0176 114.921 53.1076 114.525C53.1976 114.128 53.4581 113.391 54.2078 112.824L57.8264 117.61ZM47.6132 95.8677C45.2621 94.0678 42.6446 93.8798 37.2227 93.7535L37.0831 99.7519C42.9877 99.8894 43.4482 100.236 43.9659 100.632L47.6132 95.8677ZM37.2225 93.7535C35.2531 93.7078 33.2157 93.7418 31.5045 93.8347C29.939 93.9197 28.2624 94.0692 27.2711 94.3744L29.0365 100.109C29.0118 100.116 29.0645 100.099 29.234 100.07C29.3903 100.042 29.5983 100.013 29.86 99.9825C30.3838 99.9221 31.0535 99.8681 31.8299 99.8259C33.3809 99.7417 35.2633 99.7097 37.0833 99.7519L37.2225 93.7535ZM7.68682 116.873C7.13639 117.424 6.84798 118.074 6.70366 118.441C6.53097 118.88 6.4021 119.348 6.30559 119.795C6.11217 120.69 6 121.729 6 122.742H12C12 122.139 12.0701 121.526 12.1703 121.062C12.2206 120.829 12.2664 120.691 12.2873 120.637C12.2972 120.612 12.2881 120.641 12.2516 120.705C12.2213 120.758 12.1238 120.921 11.9332 121.112L7.68682 116.873ZM6 122.742C6 124.008 6.11097 125.238 6.53723 126.42C6.98252 127.656 7.68793 128.612 8.53452 129.46L12.7797 125.22C12.3755 124.815 12.2524 124.582 12.1818 124.386C12.0922 124.137 12 123.695 12 122.742H6ZM8.53351 129.459L10.19 131.119L14.4372 126.881L12.7807 125.221L8.53351 129.459ZM12.3136 132H36V126H12.3136V132ZM36 132H59.6864V126H36V132ZM61.81 131.119L63.4665 129.459L59.2193 125.221L57.5628 126.881L61.81 131.119ZM63.4655 129.46C64.3121 128.612 65.0175 127.656 65.4628 126.42C65.889 125.238 66 124.008 66 122.742H60C60 123.695 59.9078 124.137 59.8182 124.386C59.7476 124.582 59.6245 124.815 59.2203 125.22L63.4655 129.46ZM66 122.742C66 121.729 65.8878 120.69 65.6944 119.795C65.5979 119.348 65.469 118.88 65.2963 118.441C65.152 118.074 64.8636 117.424 64.3132 116.873L60.0668 121.112C59.8762 120.921 59.7787 120.758 59.7484 120.705C59.7119 120.641 59.7028 120.612 59.7127 120.637C59.7336 120.691 59.7794 120.829 59.8297 121.062C59.9299 121.526 60 122.139 60 122.742H66ZM64.3132 116.873C63.633 116.192 62.7714 115.911 62.3986 115.797C61.885 115.64 61.3148 115.527 60.749 115.442C59.6063 115.272 58.2124 115.181 56.7529 115.181V121.181C57.992 121.181 59.0805 121.26 59.8635 121.376C60.2606 121.436 60.5142 121.495 60.6426 121.535C60.7063 121.554 60.6898 121.554 60.6222 121.521C60.5793 121.5 60.3375 121.383 60.0668 121.112L64.3132 116.873ZM56.7529 115.181C54.6649 115.181 52.9842 115.211 51.3256 115.732C49.6826 116.249 48.25 117.189 46.4626 118.405L49.8374 123.366C51.7328 122.077 52.4588 121.665 53.1252 121.456C53.7759 121.251 54.5553 121.181 56.7529 121.181V115.181ZM46.4625 118.405L42.4868 121.11L45.8617 126.071L49.8375 123.366L46.4625 118.405ZM44.1743 120.591H36V126.591H44.1743V120.591ZM36 120.591H27.8257V126.591H36V120.591ZM29.5132 121.11L25.5375 118.405L22.1625 123.366L26.1383 126.071L29.5132 121.11ZM25.5374 118.405C23.75 117.189 22.3174 116.249 20.6744 115.732C19.0158 115.211 17.3351 115.181 15.2471 115.181V121.181C17.4447 121.181 18.2241 121.251 18.8748 121.456C19.5412 121.665 20.2672 122.077 22.1626 123.366L25.5374 118.405ZM15.2471 115.181C13.7876 115.181 12.3937 115.272 11.251 115.442C10.6852 115.527 10.115 115.64 9.60142 115.797C9.22855 115.911 8.36696 116.192 7.68682 116.873L11.9332 121.112C11.6625 121.383 11.4207 121.5 11.3779 121.521C11.3102 121.554 11.2937 121.554 11.3574 121.535C11.4858 121.495 11.7394 121.436 12.1365 121.376C12.9195 121.26 14.008 121.181 15.2471 121.181V115.181Z" fill="#F3C915" mask="url(#path-3-outside-1_2946_817)"/>
</svg>
