<svg width="103" height="90" viewBox="0 0 103 90" fill="none" xmlns="http://www.w3.org/2000/svg">
<path d="M12.875 52.9286H14.375V51.4286V38.5714C14.375 18.1875 31.0827 1.5 51.5 1.5C71.9173 1.5 88.625 18.1875 88.625 38.5714V51.4286V52.9286H90.125H96.5625C97.8727 52.9286 99.1288 53.4483 100.055 54.3729C100.98 55.2973 101.5 56.5507 101.5 57.8571V83.5714C101.5 84.8779 100.98 86.1313 100.055 87.0557C99.1288 87.9802 97.8727 88.5 96.5625 88.5H83.6875C82.3773 88.5 81.1212 87.9802 80.1954 87.0557C79.2697 86.1313 78.75 84.8779 78.75 83.5714V38.5714C78.75 23.4696 66.6177 11.3571 51.5 11.3571C36.3823 11.3571 24.25 23.4696 24.25 38.5714V83.5714C24.25 84.8779 23.7303 86.1313 22.8046 87.0557C21.8788 87.9802 20.6227 88.5 19.3125 88.5H6.4375C5.12732 88.5 3.87123 87.9802 2.94542 87.0557C2.01969 86.1313 1.5 84.8779 1.5 83.5714V57.8571C1.5 56.5507 2.01969 55.2973 2.94542 54.3729C3.87123 53.4483 5.12732 52.9286 6.4375 52.9286H12.875Z" stroke="#F3C915" stroke-width="3"/>
</svg>
