<svg width="44" height="43" viewBox="0 0 44 43" fill="none" xmlns="http://www.w3.org/2000/svg">
<path d="M14.9932 19.1084H12.0952V22.0064H14.9932V19.1084Z" fill="#F3C915"/>
<path d="M23.6876 19.1084H20.7896V22.0064H23.6876V19.1084Z" fill="#F3C915"/>
<path d="M32.3819 19.1084H29.4839V22.0064H32.3819V19.1084Z" fill="#F3C915"/>
<path d="M41.0756 0.271484H3.40143C2.63309 0.272347 1.89647 0.57795 1.35318 1.12124C0.809883 1.66454 0.504281 2.40116 0.503418 3.16949V29.2516C0.504281 30.0199 0.809883 30.7565 1.35318 31.2998C1.89647 31.8431 2.63309 32.1487 3.40143 32.1496H9.19745V42.2926H11.9711L22.1142 32.1496H41.0756C41.8439 32.1487 42.5805 31.8431 43.1238 31.2998C43.6671 30.7565 43.9727 30.0199 43.9736 29.2516V3.16949C43.9727 2.40116 43.6671 1.66454 43.1238 1.12124C42.5805 0.57795 41.8439 0.272347 41.0756 0.271484ZM41.0756 29.2516H20.9138L12.0955 38.07V29.2516H3.40143V3.16949H41.0756V29.2516Z" fill="#F3C915"/>
</svg>
