<svg id="Слой_1" data-name="Слой 1" xmlns="http://www.w3.org/2000/svg" width="82.46" height="74.75" viewBox="0 0 82.46 74.75">
  <defs>
    <style>
      .cls-1 {
        fill: #f4c914;
      }
    </style>
  </defs>
  <title>лого</title>
  <g>
    <path class="cls-1" d="M95.12,91.29c-1.52,1.19-5.45,1.53-9.78,1.71l-3.9.11,2.39-4.83,3.89-.14c2.39-.12,3.58-.45,5.14-1.74a9.41,9.41,0,0,0,1.75-2.66l15.62-31.62a37.5,37.5,0,0,0-19.86-18.9H80.19V44.5h8.63v4.42H80.19V60H93.25v4.37H76.08V30.49a37.44,37.44,0,0,0-8.7,1.08l0,0a10.28,10.28,0,0,1,3.17,9,8.56,8.56,0,0,1-3.37,6.14,9.13,9.13,0,0,1,3.57,7.55A10.31,10.31,0,0,1,69,60.14q-2.92,4.28-8.81,4.28H56V60.49h2.67a9.36,9.36,0,0,0,4.83-1.16A5.91,5.91,0,0,0,66.41,54a6.22,6.22,0,0,0-.2-1.61q-1-3.72-5.69-3.72H56V44.74h4.48a8.2,8.2,0,0,0,1.61-.15q4.18-.75,4.18-5.13a6.45,6.45,0,0,0-.7-2.92,5.79,5.79,0,0,0-3.7-3.16,37.33,37.33,0,0,0-8.38,4.88v26.1H49.15V42.23a37.34,37.34,0,0,0,0,51.28V69.3h4.38V97.47a37.43,37.43,0,0,0,4.06,2.73c2.58-.14,4.37-.66,5.36-1.57a5.18,5.18,0,0,0,1.51-4V79.23q0-4.43-5.09-5.34a19.16,19.16,0,0,0-3.33-.25V69.3q9,0,11.74,5.24a9.57,9.57,0,0,1,1.11,4.69V94.65q0,6.16-4.89,8.5a37.39,37.39,0,0,0,48.54-44.53l-13,26.64C98.48,87.46,97.71,89.8,95.12,91.29Z" transform="translate(-38.96 -30.49)"/>
    <path class="cls-1" d="M114,44.55l-3.74,7.58a37.08,37.08,0,0,1,2.32,6.49l5.93-12.13Z" transform="translate(-38.96 -30.49)"/>
    <ellipse class="cls-1" cx="118.49" cy="41.17" rx="3.08" ry="2.89" transform="translate(-3.88 104.36) rotate(-67.48)"/>
  </g>
</svg>
