<svg width="500" height="800" viewBox="0 0 500 800" fill="none" xmlns="http://www.w3.org/2000/svg">
<g clip-path="url(#clip0_2925_121)">
<path d="M381.234 856.903C376.85 865.096 360.206 874.205 341.49 883.383L324.532 891.42L325.686 865.487L342.542 857.337C352.832 852.18 357.432 848.42 361.798 839.709C363.498 834.851 364.359 829.737 364.343 824.587L371.78 654.865C337.535 624.754 293.2 608.709 247.674 609.951L202.851 629.662L224.733 679.419L262.731 662.709L271.305 682.205L233.307 698.916L254.8 747.79L312.303 722.502L320.78 741.779L245.181 775.025L179.459 625.578C166.584 631.335 154.43 638.588 143.249 647.187V647.187C150.801 649.826 157.605 654.258 163.076 660.103C168.548 665.948 172.524 673.033 174.665 680.749C176.571 686.244 177.296 692.08 176.792 697.872C176.287 703.664 174.565 709.283 171.737 714.358C178.527 716.024 184.824 719.288 190.105 723.878C195.386 728.468 199.499 734.252 202.101 740.749C206.278 749.926 207.569 760.154 205.803 770.075C202.766 786.43 192.604 798.41 175.315 806.013L156.866 814.126L149.243 796.79L160.999 791.62C168.526 788.602 175.096 783.603 180.015 777.151C183.023 772.975 184.841 768.059 185.277 762.926C185.712 757.794 184.749 752.637 182.488 748.006C181.452 745.603 180.106 743.345 178.484 741.291C170.738 731.643 159.982 729.845 146.215 735.899L126.314 744.652L118.69 727.316L138.416 718.642C140.801 717.609 143.078 716.343 145.213 714.862C156.513 707.261 159.331 697.02 153.667 684.14C151.696 679.664 148.7 675.716 144.92 672.615C141.896 669.925 138.323 667.926 134.452 666.756C130.58 665.586 126.501 665.274 122.499 665.84C111.754 677.175 102.532 689.866 95.0686 703.592L145.698 818.721L126.589 827.125L83.6609 729.508C68.2798 772.761 70.0152 820.289 88.5111 862.347C107.007 904.406 140.862 937.809 183.136 955.707L136.172 848.915L155.457 840.434L210.103 964.694C217.728 966.592 225.468 967.988 233.274 968.875C244.363 963.262 251.235 957.502 253.829 951.571C255.116 948.263 255.683 944.717 255.492 941.17C255.3 937.623 254.354 934.156 252.718 931.003L222.845 863.073C217.116 850.045 206.192 845.479 190.075 849.373C184.879 850.71 179.811 852.498 174.928 854.718L166.509 835.574C192.927 823.957 213.545 824.084 228.365 835.956C234.528 840.842 239.342 847.224 242.35 854.495L272.262 922.513C280.228 940.628 278.548 956.282 267.22 969.476C299.626 966.93 330.726 955.639 357.214 936.803C383.701 917.967 404.586 892.289 417.648 862.5C430.709 832.711 435.46 799.924 431.395 767.625C427.33 735.325 414.6 704.72 394.56 679.064L388.998 821.746C388.599 833.503 389.748 845.316 381.234 856.903Z" stroke="#F3C915" stroke-width="3"/>
<path d="M373.696 614.173L371.932 654.851C380.265 662.171 387.899 670.251 394.737 678.986L397.316 613.998L373.696 614.173Z" stroke="#F3C915" stroke-width="3"/>
<path d="M400.812 590.249C400.632 582.056 394.263 575.543 386.585 575.701C378.908 575.859 372.829 582.629 373.009 590.822C373.188 599.015 379.558 605.528 387.235 605.37C394.913 605.211 400.991 598.442 400.812 590.249Z" stroke="#F3C915" stroke-width="3"/>
<path d="M88.7 606.5V605H87.2H52.6567L104.3 519.391V569.5V571H105.8H140.343L88.7 656.609V606.5Z" stroke="#F3C915" stroke-width="3"/>
<path d="M359.5 596.233C359.5 623.14 337.569 644.966 310.5 644.966C283.431 644.966 261.5 623.14 261.5 596.233C261.5 569.326 283.431 547.5 310.5 547.5C337.569 547.5 359.5 569.326 359.5 596.233Z" stroke="#F3C915" stroke-width="3"/>
<path d="M325.266 594.586C325.932 594.971 325.932 595.933 325.266 596.318L303.527 608.869C302.86 609.254 302.027 608.773 302.027 608.003L302.027 582.901C302.027 582.131 302.86 581.65 303.527 582.035L325.266 594.586Z" fill="#F3C915"/>
</g>
<defs>
<clipPath id="clip0_2925_121">
<rect width="500" height="800" fill="white"/>
</clipPath>
</defs>
</svg>
