<svg width="1200" height="1200" viewBox="0 0 1200 1200" fill="none" xmlns="http://www.w3.org/2000/svg">
<g clip-path="url(#clip0_2928_190)">
<g filter="url(#filter0_f_2928_190)">
<g filter="url(#filter1_d_2928_190)">
<path d="M938.277 776.231C926.702 797.86 882.759 821.91 833.347 846.141L788.575 867.359L791.62 798.892L836.123 777.376C863.291 763.76 875.434 753.834 886.961 730.836C891.451 718.01 893.723 704.509 893.681 690.912L913.316 242.821C822.903 163.324 705.855 120.964 585.658 124.24L467.32 176.281L525.09 307.646L625.41 263.529L648.046 315.003L547.727 359.12L604.473 488.156L756.289 421.393L778.669 472.285L579.077 560.059L405.562 165.499C371.568 180.699 339.481 199.848 309.96 222.551V222.551C329.9 229.518 347.862 241.218 362.308 256.65C376.753 272.082 387.251 290.786 392.903 311.158C397.937 325.666 399.851 341.073 398.519 356.365C397.187 371.658 392.639 386.491 385.174 399.891C403.1 404.29 419.725 412.907 433.667 425.025C447.61 437.143 458.468 452.413 465.34 469.567C476.367 493.795 479.775 520.799 475.112 546.991C467.096 590.172 440.265 621.799 394.62 641.872L345.913 663.292L325.786 617.524L356.823 603.874C376.695 595.905 394.041 582.707 407.029 565.674C414.969 554.649 419.771 541.669 420.921 528.118C422.07 514.567 419.526 500.952 413.559 488.726C410.823 482.381 407.269 476.421 402.988 470.998C382.537 445.525 354.139 440.78 317.793 456.763L265.25 479.87L245.123 434.102L297.201 411.2C303.497 408.475 309.509 405.133 315.148 401.223C344.981 381.154 352.42 354.117 337.465 320.111C332.263 308.294 324.352 297.869 314.373 289.684C306.388 282.582 296.957 277.304 286.735 274.215C276.513 271.127 265.745 270.302 255.179 271.798C226.809 301.721 202.463 335.227 182.758 371.468L316.428 675.424L265.978 697.611L152.64 439.889C112.032 554.082 116.614 679.563 165.446 790.604C214.278 901.644 303.66 989.832 415.268 1037.09L291.278 755.141L342.193 732.75L486.464 1060.81C506.596 1065.82 527.032 1069.51 547.641 1071.85C576.916 1057.03 595.06 1041.83 601.908 1026.17C605.307 1017.43 606.804 1008.07 606.298 998.706C605.792 989.341 603.295 980.19 598.975 971.864L520.105 792.518C504.98 758.124 476.14 746.068 433.588 756.35C419.871 759.879 406.491 764.601 393.598 770.462L371.371 719.919C441.118 689.246 495.554 689.583 534.679 720.927C550.951 733.827 563.661 750.676 571.601 769.872L650.574 949.45C671.606 997.276 667.169 1038.61 637.263 1073.44C722.82 1066.72 804.928 1036.91 874.858 987.178C944.789 937.447 999.927 869.655 1034.41 791.008C1068.9 712.361 1081.44 625.798 1070.71 540.523C1059.97 455.247 1026.37 374.446 973.458 306.71L958.775 683.411C957.72 714.451 960.753 745.638 938.277 776.231Z" stroke="#F3C915" stroke-width="3" shape-rendering="crispEdges"/>
</g>
<path d="M918.373 135.388L913.718 242.783C935.717 262.109 955.873 283.441 973.925 306.504L980.735 134.926L918.373 135.388Z" stroke="#F3C915" stroke-width="3"/>
<path d="M989.964 72.2248C989.49 50.5948 972.674 33.3991 952.404 33.817C932.134 34.2349 916.086 52.1082 916.56 73.7382C917.034 95.3681 933.85 112.564 954.12 112.146C974.39 111.728 990.438 93.8547 989.964 72.2248Z" stroke="#F3C915" stroke-width="3"/>
</g>
</g>
<defs>
<filter id="filter0_f_2928_190" x="113.686" y="22.3096" width="972.25" height="1062.91" filterUnits="userSpaceOnUse" color-interpolation-filters="sRGB">
<feFlood flood-opacity="0" result="BackgroundImageFix"/>
<feBlend mode="normal" in="SourceGraphic" in2="BackgroundImageFix" result="shape"/>
<feGaussianBlur stdDeviation="5" result="effect1_foregroundBlur_2928_190"/>
</filter>
<filter id="filter1_d_2928_190" x="119.686" y="122.563" width="960.25" height="960.655" filterUnits="userSpaceOnUse" color-interpolation-filters="sRGB">
<feFlood flood-opacity="0" result="BackgroundImageFix"/>
<feColorMatrix in="SourceAlpha" type="matrix" values="0 0 0 0 0 0 0 0 0 0 0 0 0 0 0 0 0 0 127 0" result="hardAlpha"/>
<feOffset dy="4"/>
<feGaussianBlur stdDeviation="2"/>
<feComposite in2="hardAlpha" operator="out"/>
<feColorMatrix type="matrix" values="0 0 0 0 0 0 0 0 0 0 0 0 0 0 0 0 0 0 0.25 0"/>
<feBlend mode="normal" in2="BackgroundImageFix" result="effect1_dropShadow_2928_190"/>
<feBlend mode="normal" in="SourceGraphic" in2="effect1_dropShadow_2928_190" result="shape"/>
</filter>
<clipPath id="clip0_2928_190">
<rect width="1200" height="1200" fill="white"/>
</clipPath>
</defs>
</svg>
