<svg width="500" height="800" viewBox="0 0 500 800" fill="none" xmlns="http://www.w3.org/2000/svg">
<g clip-path="url(#clip0_2925_152)">
<path d="M381.234 916.903C376.85 925.096 360.206 934.205 341.49 943.383L324.532 951.42L325.686 925.487L342.542 917.337C352.832 912.18 357.432 908.42 361.798 899.709C363.498 894.851 364.359 889.737 364.343 884.587L371.78 714.865C337.535 684.754 293.2 668.709 247.674 669.951L202.851 689.662L224.733 739.419L262.731 722.709L271.305 742.205L233.307 758.916L254.8 807.79L312.303 782.502L320.78 801.779L245.181 835.025L179.459 685.578C166.584 691.335 154.43 698.588 143.249 707.187V707.187C150.801 709.826 157.605 714.258 163.076 720.103C168.548 725.948 172.524 733.033 174.665 740.749C176.571 746.244 177.296 752.08 176.792 757.872C176.287 763.664 174.565 769.283 171.737 774.358C178.527 776.024 184.824 779.288 190.105 783.878C195.386 788.468 199.499 794.252 202.101 800.749C206.278 809.926 207.569 820.154 205.803 830.075C202.766 846.43 192.604 858.41 175.315 866.013L156.866 874.126L149.243 856.79L160.999 851.62C168.526 848.602 175.096 843.603 180.015 837.151C183.023 832.975 184.841 828.059 185.277 822.926C185.712 817.794 184.749 812.637 182.488 808.006C181.452 805.603 180.106 803.345 178.484 801.291C170.738 791.643 159.982 789.845 146.215 795.899L126.314 804.652L118.69 787.316L138.416 778.642C140.801 777.609 143.078 776.343 145.213 774.862C156.513 767.261 159.331 757.02 153.667 744.14C151.696 739.664 148.7 735.716 144.92 732.615C141.896 729.925 138.323 727.926 134.452 726.756C130.58 725.586 126.501 725.274 122.499 725.84C111.754 737.175 102.532 749.866 95.0686 763.592L145.698 878.721L126.589 887.125L83.6609 789.508C68.2798 832.761 70.0152 880.289 88.5111 922.347C107.007 964.406 140.862 997.809 183.136 1015.71L136.172 908.915L155.457 900.434L210.103 1024.69C217.728 1026.59 225.468 1027.99 233.274 1028.87C244.363 1023.26 251.235 1017.5 253.829 1011.57C255.116 1008.26 255.683 1004.72 255.492 1001.17C255.3 997.623 254.354 994.156 252.718 991.003L222.845 923.073C217.116 910.045 206.192 905.479 190.075 909.373C184.879 910.71 179.811 912.498 174.928 914.718L166.509 895.574C192.927 883.957 213.545 884.084 228.365 895.956C234.528 900.842 239.342 907.224 242.35 914.495L272.262 982.513C280.228 1000.63 278.548 1016.28 267.22 1029.48C299.626 1026.93 330.726 1015.64 357.214 996.803C383.701 977.967 404.586 952.289 417.648 922.5C430.709 892.711 435.46 859.924 431.395 827.625C427.33 795.325 414.6 764.72 394.56 739.064L388.998 881.746C388.599 893.503 389.748 905.316 381.234 916.903Z" stroke="#F3C915" stroke-width="3"/>
<path d="M373.696 674.173L371.932 714.851C380.265 722.171 387.899 730.251 394.737 738.986L397.316 673.998L373.696 674.173Z" stroke="#F3C915" stroke-width="3"/>
<path d="M400.812 650.249C400.632 642.056 394.263 635.543 386.585 635.701C378.908 635.859 372.829 642.629 373.009 650.822C373.188 659.015 379.558 665.528 387.235 665.37C394.913 665.211 400.991 658.442 400.812 650.249Z" stroke="#F3C915" stroke-width="3"/>
<path d="M110.1 624.75V623.25H108.6H79.6536L122.9 551.401V593.25V594.75H124.4H153.346L110.1 666.599V624.75Z" stroke="#F3C915" stroke-width="3"/>
<path d="M368.1 357.75V356.25H366.6H337.654L380.9 284.401V326.25V327.75H382.4H411.346L368.1 399.599V357.75Z" stroke="#F3C915" stroke-width="3"/>
<path d="M462.5 541.233C462.5 568.14 440.569 589.966 413.5 589.966C386.431 589.966 364.5 568.14 364.5 541.233C364.5 514.326 386.431 492.5 413.5 492.5C440.569 492.5 462.5 514.326 462.5 541.233Z" stroke="#F3C915" stroke-width="3"/>
<path d="M428.266 539.586C428.932 539.971 428.932 540.933 428.266 541.318L406.527 553.869C405.86 554.254 405.027 553.773 405.027 553.003L405.027 527.901C405.027 527.131 405.86 526.65 406.527 527.035L428.266 539.586Z" fill="#F3C915"/>
</g>
<defs>
<clipPath id="clip0_2925_152">
<rect width="500" height="800" fill="white"/>
</clipPath>
</defs>
</svg>
